# xmcd
# 
# Track frame offsets:
#   150
#   24684
#   43571
#   60852
# 
# Disc length: 1072 seconds
# 
# Revision: 1
# Processed by: cddbd v1.5.1PL0 Copyright (c) Steve Scherf et al.
# Submitted via: VOLTOCDX V1.0.24 
# 
DISCID=27042e04
DTITLE=My Artist - My Title
DYEAR=2005
DGENRE=Description of the extended genre
TTITLE0=The Life
TTITLE1=Mr. Man
TTITLE2=Jane Doe
TTITLE3=Goodbye
EXTD=Extended CD description
EXTT0=
EXTT1=
EXTT2=
EXTT3=
PLAYORDER=
